<?xml version="1.0" encoding="utf-8"?>
<!-- Generator: Adobe Illustrator 26.5.0, SVG Export Plug-In . SVG Version: 6.00 Build 0)  -->
<svg version="1.1" id="Layer_1" xmlns="http://www.w3.org/2000/svg" xmlns:xlink="http://www.w3.org/1999/xlink" x="0px" y="0px"
	 viewBox="0 0 606.5 272.3" style="enable-background:new 0 0 606.5 272.3;" xml:space="preserve">
<style type="text/css">
	.st0{fill:#29282F;}
</style>
<g>
	<path class="st0" d="M1.1,26.5c0-2.8-0.1-5.7-0.2-8.8C0.7,14.6,0.4,11.6,0,8.6h47.7c11.1,0,19.8,1.3,26.2,4
		c6.4,2.7,10.9,6.3,13.6,10.8c2.7,4.5,4,9.4,4,14.8c0,4.7-1,9-2.9,12.8c-1.9,3.8-5.3,7-10.2,9.5c7.2,2.7,12.3,6.5,15.3,11.3
		c3,4.9,4.4,10.5,4.4,17c0,6.5-1.5,12.3-4.6,17.5c-3.1,5.2-7.9,9.4-14.6,12.4c-6.6,3.1-15.3,4.6-26.1,4.6H0c0.4-3,0.7-6,0.9-9
		c0.2-3,0.2-6,0.2-9V26.5z M55.7,79.8c-1.7-1.3-4.3-2-8-2h-7.1v15.4H49c6.1,0,9.2-2.6,9.2-7.8C58.2,83,57.4,81.1,55.7,79.8z
		 M55.9,46.6c0-2.7-0.7-4.7-2.2-5.9c-1.5-1.2-4.1-1.9-7.8-1.9h-5v15.5h4.7c3.9,0,6.6-0.7,8.1-2.1C55.2,50.8,55.9,48.9,55.9,46.6z"/>
	<path class="st0" d="M160.2,125.3c-10.5,0-19.6-1.7-27.4-5c-7.8-3.3-13.9-8.4-18.3-15.2c-4.4-6.8-6.5-15.4-6.5-25.9
		c0-9.5,1.9-17.5,5.8-23.9c3.9-6.5,9.2-11.4,16-14.7c6.8-3.3,14.4-5,23-5c12.6,0,22.4,3.7,29.3,11.2c6.9,7.4,10.3,18,10.3,31.7
		c0,1.7,0,3.2-0.1,4.4c-0.1,1.2-0.2,2.5-0.4,4h-42.7c1.1,3.9,3.2,6.4,6.3,7.6c3.1,1.2,7.6,1.8,13.4,1.8c4.3,0,8.1-0.2,11.3-0.6
		c3.2-0.4,6.6-1.1,10.2-1.9l-2.1,28.8c-4,1-8.2,1.7-12.6,2.2C171.3,125.1,166.2,125.3,160.2,125.3z M154.3,59.8
		c-1.9,0-3.4,0.8-4.4,2.5c-1,1.7-1.6,5.5-1.7,11.6l11.5-0.3c0-5.1-0.4-8.6-1.3-10.7C157.4,60.9,156.1,59.8,154.3,59.8z"/>
	<path class="st0" d="M257.7,157.3H211c4.1-6,7.4-12.9,9.9-20.5l3.2-10l-31.4-89.3h44.9c0,2.7,0.2,5.2,0.5,7.5
		c0.3,2.3,0.7,4.7,1.1,7.2l7.3,39.5l7-39.5c0.4-2.5,0.8-5,1-7.4c0.2-2.5,0.3-4.9,0.3-7.3h44.5L257.7,157.3z"/>
	<path class="st0" d="M343.3,125.3c-8.8,0-16.8-1.6-23.8-4.9c-7-3.2-12.5-8.2-16.6-14.8c-4-6.6-6.1-15-6.1-25.1
		c0-7.8,1.3-14.5,4-20.1c2.7-5.7,6.4-10.3,11.1-14c4.7-3.7,10-6.4,15.9-8.2c5.9-1.8,12.1-2.7,18.4-2.7c8.8,0,16.8,1.6,23.8,4.8
		c7,3.2,12.5,8.2,16.6,14.8s6.1,15,6.1,25.1c0,7.8-1.3,14.5-4,20.1c-2.7,5.7-6.4,10.3-11.1,14c-4.7,3.7-10,6.4-15.9,8.2
		C355.8,124.4,349.7,125.3,343.3,125.3z M345.1,66.1c-2.6,0-4.7,1-6.3,3c-1.6,2-2.4,5.3-2.4,9.8c0,5.6,0.7,9.6,2.1,12.1
		c1.4,2.5,3.5,3.7,6.1,3.7c2.6,0,4.7-1,6.3-3c1.6-2,2.4-5.2,2.4-9.6c0-5.7-0.7-9.8-2.1-12.3C349.8,67.4,347.8,66.1,345.1,66.1z"/>
	<path class="st0" d="M402.1,59.8c0-3.1-0.1-6.4-0.2-9.7c-0.1-3.3-0.4-6.5-1-9.5l42.2-4.9l-0.6,17.9c3.1-6.1,7.1-10.7,11.9-13.7
		c4.8-3,10.3-4.4,16.6-4.4c8.6,0,15.2,2.7,19.7,8.1c4.5,5.4,6.8,13.3,6.8,23.8v31.9c0,3.7,0.1,7.6,0.2,11.7
		c0.2,4.2,0.5,8.3,0.9,12.4h-42.2V75c0-4.1-1.8-6.1-5.3-6.1c-2.9,0-5.6,1.1-7.9,3.2v27.2c0,3.7,0.1,7.6,0.2,11.7
		c0.2,4.2,0.5,8.3,0.9,12.4h-42.2V59.8z"/>
	<path class="st0" d="M602.8,102.2c0,4.5,0.2,8.2,0.6,11.2c0.4,2.9,0.9,6.3,1.7,10h-37.7c-1.2-2.6-2.2-5.4-3-8.6
		c-0.8-3.1-1.3-6.1-1.4-9.1c-2.4,6.4-5.9,11.2-10.6,14.6c-4.7,3.3-10.4,5-17.1,5c-8.6,0-15.7-3.5-21.2-10.4S506,97.5,506,83.6
		c0-11.4,1.7-20.6,5.2-27.6c3.4-7,8-12.2,13.7-15.4c5.7-3.3,11.8-4.9,18.4-4.9c7.3,0,13.5,1.8,18.6,5.5V23.3c0-3.1-0.1-6.2-0.2-9.2
		c-0.2-3-0.5-6.1-0.9-9.2L602.8,0V102.2z M549.4,67.5c-1.9,2.3-2.9,6.3-2.9,11.9c0,4.6,0.7,7.9,2.1,9.8c1.4,1.9,3.2,2.8,5.5,2.8
		c3,0,5.5-1,7.6-3.1V64.4c-1.2-0.2-2.4-0.3-3.7-0.3C554.2,64,551.4,65.2,549.4,67.5z"/>
	<path class="st0" d="M1.1,173.5c0-2.8-0.1-5.7-0.2-8.8c-0.2-3.1-0.5-6.1-0.9-9.1h41.2v0.2h7.6c15.3,0.1,26.5,3.3,33.7,9.5
		c7.2,6.2,10.8,14.9,10.8,26.1c0,5.8-1.2,11.2-3.7,16c-2.5,4.9-7.1,8.7-13.7,11.6c5.9,2.3,10.2,5.7,12.7,10.3
		c2.5,4.6,4.4,9.5,5.6,14.6l2.4,10.3c1.4,5.6,3.2,11,5.3,16.2h-44L54.7,252c-0.9-5.1-2.2-8.5-3.9-10.3c-1.7-1.8-4-2.7-6.8-2.7h-2.7
		v13.6c0,3,0.1,6,0.2,9c0.2,3,0.5,6,0.9,9H0c0.4-3,0.7-6,0.9-9c0.2-3,0.2-6,0.2-9V173.5z M53.8,190.7c-2-1.8-4.7-2.7-8.2-2.7h-4.4
		v22.5h3.7c7.9,0,11.8-3.7,11.8-11C56.8,195.4,55.8,192.5,53.8,190.7z"/>
	<path class="st0" d="M161.9,270.4c-1.7-3.4-3-7.3-3.7-11.6c-2.9,4.6-6.8,8.1-11.6,10.3c-4.8,2.2-10.4,3.3-16.7,3.3
		c-7.9,0-13.8-1.8-17.7-5.5c-3.9-3.7-5.9-8.4-5.9-14.2c0-4.1,0.9-7.8,2.7-11.2c1.8-3.3,5.1-6.5,9.9-9.5c4.8-3,11.6-5.8,20.5-8.5
		l15-4.5c-1.9-2.9-5.8-4.4-11.6-4.4c-4.8,0-10,0.6-15.4,1.7c-5.4,1.1-10.8,2.9-16.3,5.4l3.1-33.1c6.4-2,12.7-3.6,19.1-4.5
		c6.4-1,12.6-1.5,18.8-1.5c16.3,0,27.9,3.8,34.8,11.3c7,7.5,10.4,19.1,10.4,34.6v20.7c0,4.5,0.2,8.2,0.6,11.2
		c0.4,2.9,0.9,6.3,1.7,10H161.9z M148,247.3c2.4,0,4.4-0.9,6.1-2.7c1.7-1.8,2.5-4.5,2.5-8.1v-1.1l-3.2,0.3c-4.2,0.3-7,1.1-8.5,2.3
		c-1.5,1.2-2.2,2.7-2.2,4.5c0,1.6,0.5,2.8,1.5,3.6C145.2,246.9,146.5,247.3,148,247.3z"/>
	<path class="st0" d="M211.8,206.8c0-3.1-0.1-6.4-0.2-9.7c-0.1-3.3-0.4-6.5-1-9.5l42.2-4.9l-0.6,17.8c6.2-12,15.8-17.9,28.8-17.9
		s21.1,6,24.6,18.1c3.8-6.1,8-10.7,12.8-13.7c4.7-3,10.5-4.4,17.1-4.4c8.4,0,14.8,2.7,19.3,8.1c4.5,5.4,6.7,13.3,6.7,23.8v31.9
		c0,3.7,0.1,7.6,0.2,11.7c0.2,4.2,0.5,8.3,0.9,12.4h-42.2V222c0-4.1-1.8-6.1-5.3-6.1c-2.9,0-5.6,1.1-7.9,3.2v27.2
		c0,3.7,0.1,7.6,0.2,11.7c0.2,4.2,0.5,8.3,0.9,12.4h-42.2V222c0-4.1-1.8-6.1-5.3-6.1c-2.9,0-5.6,1.1-7.9,3.2v27.2
		c0,3.7,0.1,7.6,0.2,11.7c0.2,4.2,0.5,8.3,0.9,12.4h-42.2V206.8z"/>
	<path class="st0" d="M422.2,272.3c-10.5,0-19.6-1.7-27.4-5c-7.8-3.3-13.9-8.4-18.3-15.2c-4.4-6.8-6.5-15.4-6.5-25.9
		c0-9.5,1.9-17.5,5.8-23.9s9.2-11.4,16-14.7c6.8-3.3,14.4-5,23-5c12.6,0,22.4,3.7,29.3,11.2c6.9,7.4,10.3,18,10.3,31.7
		c0,1.7,0,3.2-0.1,4.4c-0.1,1.2-0.2,2.5-0.4,4h-42.7c1.1,3.9,3.2,6.4,6.3,7.6c3.1,1.2,7.6,1.8,13.4,1.8c4.3,0,8.1-0.2,11.3-0.6
		c3.2-0.4,6.6-1.1,10.2-1.9l-2.1,28.8c-4,1-8.2,1.7-12.6,2.2S428.1,272.3,422.2,272.3z M416.2,206.8c-1.9,0-3.4,0.8-4.4,2.5
		c-1,1.7-1.6,5.5-1.7,11.6l11.5-0.3c0-5.1-0.4-8.6-1.3-10.7C419.4,207.9,418,206.8,416.2,206.8z"/>
	<path class="st0" d="M464.2,206.8c0-3.1-0.1-6.4-0.2-9.7c-0.1-3.3-0.4-6.5-1-9.5l42.2-4.9l-0.6,17.9c3.1-6.1,7.1-10.7,11.9-13.7
		c4.8-3,10.3-4.4,16.6-4.4c8.6,0,15.2,2.7,19.7,8.1c4.5,5.4,6.8,13.3,6.8,23.8v31.9c0,3.7,0.1,7.6,0.2,11.7
		c0.2,4.2,0.5,8.3,0.9,12.4h-42.2V222c0-4.1-1.8-6.1-5.3-6.1c-2.9,0-5.6,1.1-7.9,3.2v27.2c0,3.7,0.1,7.6,0.2,11.7
		c0.2,4.2,0.5,8.3,0.9,12.4h-42.2V206.8z"/>
</g>
</svg>
